<?xml version="1.0" standalone="no"?>
<!DOCTYPE svg PUBLIC "-//W3C//DTD SVG 20010904//EN"
 "http://www.w3.org/TR/2001/REC-SVG-20010904/DTD/svg10.dtd">
<svg version="1.0" xmlns="http://www.w3.org/2000/svg"
 width="1000.000000pt" height="562.000000pt" viewBox="0 0 1000.000000 562.000000"
 preserveAspectRatio="xMidYMid meet">

<g transform="translate(0.000000,562.000000) scale(0.100000,-0.100000)"
fill="#000000" stroke="none">
<path d="M0 2810 c0 -1867 3 -2810 10 -2810 7 0 10 940 10 2800 l0 2800 4990
0 c3320 0 4990 3 4990 10 0 7 -1673 10 -5000 10 l-5000 0 0 -2810z"/>
<path d="M2345 4803 c-32 -2 -64 -8 -70 -13 -5 -4 -62 -13 -125 -20 -63 -6
-128 -17 -143 -25 -16 -8 -56 -20 -90 -26 -34 -6 -71 -17 -82 -24 -11 -6 -33
-15 -50 -19 -31 -8 -59 -19 -160 -66 -97 -44 -108 -50 -157 -78 -25 -15 -61
-36 -79 -46 -183 -104 -497 -409 -604 -587 -11 -19 -30 -49 -41 -69 -72 -118
-169 -332 -178 -390 -4 -25 -14 -55 -22 -67 -8 -13 -19 -60 -25 -105 -7 -46
-15 -85 -19 -88 -7 -5 -12 -57 -26 -287 -6 -103 12 -272 53 -498 30 -167 109
-379 203 -548 230 -414 646 -756 1095 -900 158 -51 192 -59 305 -78 63 -10
142 -23 175 -28 73 -13 368 -14 450 -2 33 5 112 17 175 26 182 26 422 94 620
175 430 177 832 446 1291 867 86 79 160 143 164 143 3 0 50 -42 103 -93 148
-140 323 -289 492 -418 471 -359 1000 -603 1455 -670 72 -11 157 -24 190 -29
122 -19 382 -12 552 15 605 98 1067 382 1397 858 63 90 216 393 216 427 0 6 9
36 20 68 45 124 71 280 77 460 6 178 5 192 -39 422 -77 406 -303 785 -624
1047 -216 176 -495 309 -776 368 -651 138 -1351 -63 -1988 -572 -323 -259
-552 -498 -1080 -1128 -563 -674 -851 -965 -1208 -1224 -394 -286 -817 -458
-1232 -502 -174 -18 -445 -6 -600 26 -415 86 -779 300 -1034 605 -197 235
-332 517 -386 803 -12 62 -28 146 -36 188 -16 87 -19 265 -4 274 6 3 10 43 10
89 0 86 35 268 64 338 9 21 16 45 16 54 0 47 124 296 218 437 87 132 148 205
260 315 290 284 687 481 1092 543 311 48 435 48 760 0 282 -41 628 -157 895
-299 22 -12 56 -29 75 -39 75 -39 263 -157 381 -239 211 -148 422 -323 632
-522 l98 -93 167 153 c385 352 703 580 1062 759 319 159 593 246 910 289 197
27 359 34 480 21 138 -14 371 -51 389 -60 9 -5 41 -14 71 -21 115 -27 301
-104 455 -189 281 -155 562 -430 717 -701 88 -153 118 -221 173 -387 38 -115
77 -314 99 -498 1 -16 4 -3 4 30 2 71 -17 236 -28 250 -5 6 -13 44 -19 85 -6
41 -19 93 -31 115 -11 21 -20 52 -20 68 0 16 -8 44 -19 61 -10 17 -24 49 -31
71 -7 22 -16 42 -19 45 -3 3 -22 37 -41 75 -19 39 -42 81 -51 95 -80 125 -107
163 -198 274 -58 69 -168 178 -227 224 -16 12 -49 39 -74 59 -71 57 -160 115
-235 153 -22 11 -51 27 -65 35 -14 9 -36 20 -50 25 -14 6 -32 14 -40 20 -38
25 -206 87 -285 105 -33 8 -77 21 -98 30 -21 8 -88 20 -150 26 -62 6 -118 16
-126 23 -20 16 -492 16 -512 0 -8 -7 -67 -17 -132 -23 -65 -6 -134 -18 -155
-26 -20 -8 -68 -22 -107 -30 -73 -15 -178 -47 -232 -71 -17 -8 -37 -14 -45
-14 -7 0 -27 -9 -45 -19 -17 -11 -51 -25 -75 -31 -24 -7 -50 -18 -58 -25 -8
-7 -34 -19 -57 -26 -24 -7 -43 -15 -43 -19 0 -4 -21 -15 -47 -25 -27 -10 -50
-21 -53 -25 -3 -4 -21 -15 -40 -24 -19 -9 -53 -28 -75 -41 -22 -13 -58 -34
-79 -46 -22 -12 -45 -26 -52 -33 -7 -6 -35 -24 -64 -41 -28 -16 -75 -48 -105
-70 -30 -22 -70 -51 -90 -65 -141 -100 -382 -302 -548 -460 -49 -47 -93 -87
-98 -88 -5 -2 -58 40 -117 94 -125 114 -144 132 -174 160 -28 26 -257 213
-289 236 -13 9 -56 41 -96 70 -39 29 -80 59 -90 65 -10 7 -34 24 -53 38 -19
14 -49 32 -67 40 -17 8 -34 19 -38 25 -4 6 -21 17 -38 25 -18 8 -54 29 -82 46
-27 17 -99 56 -160 86 -60 30 -131 66 -158 79 -26 13 -53 24 -60 24 -7 0 -28
8 -47 19 -19 10 -53 24 -75 31 -22 7 -44 16 -50 20 -5 4 -39 15 -75 25 -36 9
-69 21 -75 25 -5 4 -32 11 -60 15 -27 4 -75 15 -105 26 -30 10 -106 24 -170
30 -63 6 -120 15 -126 20 -13 10 -362 19 -459 12z m5452 -994 c397 -53 734
-299 880 -642 70 -165 106 -408 85 -574 -51 -402 -349 -766 -763 -930 -200
-80 -352 -107 -594 -107 -567 1 -1136 248 -1854 805 l-143 111 73 77 c208 215
255 261 266 261 7 0 13 -4 13 -9 0 -13 273 -267 410 -382 249 -208 503 -373
720 -467 360 -156 735 -200 1034 -122 97 26 251 85 287 111 15 10 30 19 33 19
18 0 152 106 216 170 134 135 230 307 270 485 17 75 19 103 12 170 l-9 80 -2
-96 c-1 -66 -7 -116 -21 -159 -11 -34 -20 -67 -20 -73 0 -41 -133 -279 -180
-322 -11 -10 -20 -23 -21 -29 -1 -21 -197 -184 -249 -206 -14 -6 -32 -17 -40
-24 -8 -8 -33 -19 -55 -26 -22 -7 -49 -19 -60 -26 -11 -7 -42 -18 -70 -25 -27
-6 -55 -15 -60 -20 -6 -4 -53 -15 -105 -25 -135 -25 -390 -23 -525 4 -142 29
-245 57 -280 76 -16 9 -37 16 -46 16 -9 0 -37 11 -63 25 -26 14 -55 25 -65 25
-9 0 -32 11 -51 25 -19 14 -39 25 -46 25 -7 0 -49 23 -94 50 -45 28 -83 50
-85 50 -2 0 -25 15 -51 33 -26 17 -70 48 -98 67 -28 20 -67 47 -86 60 -40 29
-258 208 -287 236 -10 10 -41 39 -68 63 -28 24 -94 86 -148 137 l-98 94 108
104 c350 335 642 552 938 696 214 105 357 152 560 185 99 16 328 18 432 4z"/>
<path d="M7378 3783 c7 -3 16 -2 19 1 4 3 -2 6 -13 5 -11 0 -14 -3 -6 -6z"/>
<path d="M7798 3783 c7 -3 16 -2 19 1 4 3 -2 6 -13 5 -11 0 -14 -3 -6 -6z"/>
<path d="M7313 3773 c9 -2 25 -2 35 0 9 3 1 5 -18 5 -19 0 -27 -2 -17 -5z"/>
<path d="M7843 3773 c9 -2 25 -2 35 0 9 3 1 5 -18 5 -19 0 -27 -2 -17 -5z"/>
<path d="M7268 3763 c7 -3 16 -2 19 1 4 3 -2 6 -13 5 -11 0 -14 -3 -6 -6z"/>
<path d="M7090 3720 c-18 -12 -2 -12 25 0 13 6 15 9 5 9 -8 0 -22 -4 -30 -9z"/>
<path d="M8038 3723 c7 -3 16 -2 19 1 4 3 -2 6 -13 5 -11 0 -14 -3 -6 -6z"/>
<path d="M6968 3673 c7 -3 16 -2 19 1 4 3 -2 6 -13 5 -11 0 -14 -3 -6 -6z"/>
<path d="M8150 3676 c0 -2 9 -6 20 -9 11 -3 18 -1 14 4 -5 9 -34 13 -34 5z"/>
<path d="M6853 3630 c-35 -14 -27 -20 10 -8 17 6 34 13 36 14 8 7 -24 3 -46
-6z"/>
<path d="M8230 3633 c8 -3 22 -11 30 -17 13 -10 13 -9 1 7 -7 9 -21 17 -30 16
-13 0 -14 -1 -1 -6z"/>
<path d="M6785 3590 c-16 -7 -17 -9 -3 -9 9 -1 20 4 23 9 7 11 7 11 -20 0z"/>
<path d="M8281 3596 c2 -2 15 -9 29 -15 24 -11 24 -11 6 3 -16 13 -49 24 -35
12z"/>
<path d="M8340 3561 c0 -6 4 -13 10 -16 6 -3 7 1 4 9 -7 18 -14 21 -14 7z"/>
<path d="M6690 3540 c-8 -5 -10 -10 -5 -10 6 0 17 5 25 10 8 5 11 10 5 10 -5
0 -17 -5 -25 -10z"/>
<path d="M6625 3500 c-3 -6 1 -7 9 -4 18 7 21 14 7 14 -6 0 -13 -4 -16 -10z"/>
<path d="M8437 3472 c23 -23 46 -50 52 -59 6 -10 11 -13 11 -6 0 13 -50 67
-86 92 -10 8 0 -5 23 -27z"/>
<path d="M6585 3480 c-3 -5 -2 -10 4 -10 5 0 13 5 16 10 3 6 2 10 -4 10 -5 0
-13 -4 -16 -10z"/>
<path d="M6520 3440 c-8 -5 -10 -10 -5 -10 6 0 17 5 25 10 8 5 11 10 5 10 -5
0 -17 -5 -25 -10z"/>
<path d="M6440 3385 c-7 -8 -8 -15 -2 -15 5 0 15 7 22 15 7 8 8 15 2 15 -5 0
-15 -7 -22 -15z"/>
<path d="M8520 3382 c6 -13 14 -21 18 -18 3 4 -2 14 -12 24 -18 16 -18 16 -6
-6z"/>
<path d="M6370 3335 c-19 -22 -8 -25 13 -3 9 10 13 18 8 18 -5 0 -14 -7 -21
-15z"/>
<path d="M8565 3316 c10 -14 19 -26 22 -26 7 0 -17 39 -28 46 -6 3 -3 -5 6
-20z"/>
<path d="M6296 3275 c-51 -46 -40 -45 14 0 23 19 38 35 33 35 -4 -1 -26 -16
-47 -35z"/>
<path d="M8616 3231 c9 -17 17 -31 19 -31 8 0 -9 40 -21 51 -10 8 -10 3 2 -20z"/>
<path d="M6209 3203 c-13 -16 -12 -17 4 -4 16 13 21 21 13 21 -2 0 -10 -8 -17
-17z"/>
<path d="M6130 3138 c-103 -91 -142 -128 -136 -128 3 0 32 24 64 53 31 28 73
64 92 79 19 15 31 28 25 28 -5 -1 -26 -15 -45 -32z"/>
<path d="M8671 3110 c0 -8 4 -22 9 -30 12 -18 12 -2 0 25 -6 13 -9 15 -9 5z"/>
<path d="M5931 2959 c-23 -23 -41 -43 -39 -45 3 -2 24 17 48 41 55 56 49 59
-9 4z"/>
<path d="M8712 2970 c0 -14 2 -19 5 -12 2 6 2 18 0 25 -3 6 -5 1 -5 -13z"/>
<path d="M8723 2905 c0 -22 2 -30 4 -17 2 12 2 30 0 40 -3 9 -5 -1 -4 -23z"/>
<path d="M5840 2875 c-11 -13 -10 -14 4 -9 9 3 16 10 16 15 0 13 -6 11 -20 -6z"/>
<path d="M2410 4053 c-220 -33 -362 -74 -503 -144 -377 -189 -616 -514 -667
-909 -11 -82 -10 -112 4 -215 21 -144 38 -218 72 -305 117 -300 390 -544 709
-634 151 -42 212 -50 390 -49 145 0 189 4 300 27 383 80 725 264 1149 620 112
94 377 341 384 358 2 4 0 8 -5 8 -5 0 -31 20 -58 45 -28 25 -54 45 -58 45 -5
0 17 -21 47 -47 l56 -48 -99 -96 c-55 -53 -146 -137 -203 -185 -57 -49 -105
-91 -108 -94 -10 -11 -77 -66 -110 -90 -18 -14 -48 -36 -66 -50 -18 -14 -49
-36 -69 -50 -20 -14 -49 -35 -65 -47 -15 -13 -31 -23 -34 -23 -4 0 -37 -19
-74 -43 -81 -51 -106 -65 -202 -113 -132 -65 -175 -84 -190 -84 -8 0 -27 -7
-43 -15 -38 -20 -235 -70 -337 -86 -110 -17 -332 -17 -440 0 -124 19 -296 76
-370 122 -8 5 -31 17 -50 25 -19 9 -37 20 -40 24 -3 4 -24 19 -47 33 -82 52
-226 210 -270 297 -10 19 -24 41 -30 48 -7 7 -13 18 -13 23 0 6 -9 29 -21 52
-38 77 -64 184 -87 362 -11 90 6 195 54 316 129 331 399 560 772 656 101 26
120 28 322 28 199 -1 224 -3 330 -28 189 -44 308 -88 485 -178 277 -140 546
-340 882 -656 83 -79 156 -143 161 -143 10 0 314 314 320 330 2 5 -63 59 -143
121 -725 559 -1292 803 -1860 798 -82 -1 -161 -3 -175 -6z"/>
<path d="M2133 3773 c9 -2 25 -2 35 0 9 3 1 5 -18 5 -19 0 -27 -2 -17 -5z"/>
<path d="M2653 3773 c9 -2 25 -2 35 0 9 3 1 5 -18 5 -19 0 -27 -2 -17 -5z"/>
<path d="M2088 3763 c7 -3 16 -2 19 1 4 3 -2 6 -13 5 -11 0 -14 -3 -6 -6z"/>
<path d="M2728 3763 c7 -3 16 -2 19 1 4 3 -2 6 -13 5 -11 0 -14 -3 -6 -6z"/>
<path d="M1930 3720 c-11 -8 -7 -9 15 -4 37 8 45 14 19 14 -10 0 -26 -5 -34
-10z"/>
<path d="M2871 3726 c2 -2 18 -6 34 -10 22 -5 26 -4 15 4 -14 9 -59 15 -49 6z"/>
<path d="M1825 3670 c-3 -6 1 -7 9 -4 18 7 21 14 7 14 -6 0 -13 -4 -16 -10z"/>
<path d="M1732 3615 c-17 -14 -34 -25 -39 -25 -5 0 -49 -39 -99 -86 -49 -48
-80 -79 -69 -71 11 9 43 38 72 66 29 28 71 63 94 78 23 15 53 36 68 45 14 10
21 18 14 18 -6 0 -25 -11 -41 -25z"/>
<path d="M3125 3630 c27 -12 43 -12 25 0 -8 5 -22 9 -30 9 -10 0 -8 -3 5 -9z"/>
<path d="M3218 3583 c7 -3 16 -2 19 1 4 3 -2 6 -13 5 -11 0 -14 -3 -6 -6z"/>
<path d="M3250 3576 c0 -2 8 -10 18 -17 15 -13 16 -12 3 4 -13 16 -21 21 -21
13z"/>
<path d="M3380 3496 c0 -3 9 -10 20 -16 11 -6 20 -8 20 -6 0 3 -9 10 -20 16
-11 6 -20 8 -20 6z"/>
<path d="M3446 3449 c3 -5 10 -9 16 -9 6 0 21 -8 32 -17 21 -18 21 -18 3 4
-18 20 -63 40 -51 22z"/>
<path d="M1480 3385 c-13 -14 -22 -27 -19 -29 2 -2 14 10 27 25 29 36 24 38
-8 4z"/>
<path d="M3530 3396 c0 -2 7 -7 16 -10 8 -3 12 -2 9 4 -6 10 -25 14 -25 6z"/>
<path d="M3615 3336 c42 -36 65 -49 65 -36 0 5 -6 10 -14 10 -7 0 -19 7 -26
16 -8 8 -23 20 -34 25 -13 7 -10 1 9 -15z"/>
<path d="M1434 3318 l-19 -23 23 19 c21 18 27 26 19 26 -2 0 -12 -10 -23 -22z"/>
<path d="M3722 3254 c10 -10 20 -15 24 -12 3 4 -5 12 -18 18 -22 12 -22 12 -6
-6z"/>
<path d="M1366 3203 c-6 -14 -5 -15 5 -6 7 7 10 15 7 18 -3 3 -9 -2 -12 -12z"/>
<path d="M3770 3218 c0 -2 9 -11 20 -21 11 -9 20 -13 20 -7 0 5 -9 14 -20 20
-11 6 -20 9 -20 8z"/>
<path d="M3840 3157 c8 -7 21 -19 29 -27 11 -13 12 -12 3 6 -7 12 -19 24 -29
28 -16 5 -16 4 -3 -7z"/>
<path d="M1321 3099 c-6 -18 -9 -34 -7 -36 2 -2 9 10 15 28 6 18 9 34 7 36 -2
2 -9 -10 -15 -28z"/>
<path d="M3910 3095 c13 -14 25 -25 27 -25 2 0 -4 11 -13 25 -9 14 -21 25 -27
25 -6 0 0 -11 13 -25z"/>
<path d="M3990 3027 c25 -27 54 -53 65 -59 11 -6 4 4 -15 21 -76 71 -93 84
-50 38z"/>
<path d="M1282 2950 c0 -14 2 -19 5 -12 2 6 2 18 0 25 -3 6 -5 1 -5 -13z"/>
<path d="M4090 2936 c0 -2 8 -10 18 -17 15 -13 16 -12 3 4 -13 16 -21 21 -21
13z"/>
<path d="M1273 2865 c0 -22 2 -30 4 -17 2 12 2 30 0 40 -3 9 -5 -1 -4 -23z"/>
<path d="M9534 2730 c0 -91 2 -128 3 -82 2 45 2 119 0 165 -1 45 -3 8 -3 -83z"/>
<path d="M463 2675 c0 -33 2 -45 4 -27 2 18 2 45 0 60 -2 15 -4 0 -4 -33z"/>
<path d="M472 2590 c0 -14 2 -19 5 -12 2 6 2 18 0 25 -3 6 -5 1 -5 -13z"/>
<path d="M9522 2540 c0 -14 2 -19 5 -12 2 6 2 18 0 25 -3 6 -5 1 -5 -13z"/>
<path d="M512 2330 c0 -19 2 -27 5 -17 2 9 2 25 0 35 -3 9 -5 1 -5 -18z"/>
<path d="M9482 2305 c0 -16 2 -22 5 -12 2 9 2 23 0 30 -3 6 -5 -1 -5 -18z"/>
<path d="M557 2185 c3 -22 7 -42 9 -44 8 -9 2 45 -6 64 -7 14 -8 8 -3 -20z"/>
<path d="M9436 2178 c-3 -13 -5 -32 -5 -43 1 -11 5 -2 10 19 10 42 6 62 -5 24z"/>
<path d="M9396 2065 c-3 -9 -6 -22 -5 -28 0 -7 5 -1 10 12 5 13 8 26 5 28 -2
2 -6 -3 -10 -12z"/>
<path d="M601 2054 c0 -11 3 -14 6 -6 3 7 2 16 -1 19 -3 4 -6 -2 -5 -13z"/>
<path d="M4970 2000 c-19 -17 -30 -30 -24 -30 6 0 21 11 34 25 12 13 27 22 33
18 6 -3 7 -1 3 5 -9 15 -5 17 -46 -18z"/>
<path d="M5030 1996 c0 -2 8 -10 18 -17 15 -13 16 -12 3 4 -13 16 -21 21 -21
13z"/>
<path d="M645 1948 c4 -13 11 -27 16 -33 5 -5 4 5 -2 23 -12 36 -24 44 -14 10z"/>
<path d="M9342 1931 c-6 -17 -9 -31 -6 -31 7 0 25 52 20 57 -2 2 -8 -10 -14
-26z"/>
<path d="M5094 1931 c21 -23 26 -26 26 -11 0 5 -10 15 -22 21 -23 12 -23 12
-4 -10z"/>
<path d="M5130 1903 c0 -5 16 -22 36 -38 21 -17 48 -41 62 -55 22 -23 23 -23
13 -3 -6 12 -18 26 -25 30 -8 4 -30 23 -50 41 -20 18 -36 29 -36 25z"/>
<path d="M4844 1885 c-10 -8 -14 -15 -8 -15 6 0 17 7 24 15 16 19 9 19 -16 0z"/>
<path d="M4804 1846 c-6 -7 -29 -27 -50 -46 -22 -18 -27 -26 -13 -17 35 21 96
77 84 77 -6 -1 -15 -7 -21 -14z"/>
<path d="M9290 1836 c-15 -39 -12 -46 6 -13 9 16 13 31 10 34 -3 3 -10 -6 -16
-21z"/>
<path d="M741 1774 c0 -11 3 -14 6 -6 3 7 2 16 -1 19 -3 4 -6 -2 -5 -13z"/>
<path d="M5287 1759 c18 -18 35 -31 37 -28 3 3 -12 18 -32 33 l-37 29 32 -34z"/>
<path d="M4686 1745 c-11 -8 -15 -15 -10 -15 6 0 19 7 30 15 10 8 15 14 9 14
-5 0 -19 -6 -29 -14z"/>
<path d="M786 1707 c3 -10 9 -15 12 -12 3 3 0 11 -7 18 -10 9 -11 8 -5 -6z"/>
<path d="M5354 1701 c20 -22 26 -25 26 -13 0 4 -10 13 -22 21 -23 14 -23 14
-4 -8z"/>
<path d="M9205 1699 c-4 -6 -5 -12 -2 -15 2 -3 7 2 10 11 7 17 1 20 -8 4z"/>
<path d="M4619 1683 c-13 -16 -12 -17 4 -4 16 13 21 21 13 21 -2 0 -10 -8 -17
-17z"/>
<path d="M9173 1648 c-22 -26 -37 -48 -30 -48 3 0 17 16 31 35 30 39 30 46 -1
13z"/>
<path d="M830 1640 c6 -11 13 -20 16 -20 2 0 0 9 -6 20 -6 11 -13 20 -16 20
-2 0 0 -9 6 -20z"/>
<path d="M5422 1644 c10 -10 20 -15 24 -12 3 4 -5 12 -18 18 -22 12 -22 12 -6
-6z"/>
<path d="M4559 1633 c-13 -16 -12 -17 4 -4 16 13 21 21 13 21 -2 0 -10 -8 -17
-17z"/>
<path d="M4496 1585 c-16 -14 -32 -25 -35 -25 -3 -1 -24 -17 -46 -37 -22 -20
-33 -32 -25 -28 11 7 123 90 149 112 2 1 0 3 -5 3 -5 0 -22 -11 -38 -25z"/>
<path d="M5470 1605 c0 -2 10 -10 23 -16 20 -11 21 -11 8 4 -13 16 -31 23 -31
12z"/>
<path d="M870 1582 c0 -5 10 -17 21 -28 22 -19 22 -19 10 3 -12 24 -31 39 -31
25z"/>
<path d="M9106 1564 c-23 -23 -20 -30 4 -9 11 10 20 20 20 22 0 7 -9 2 -24
-13z"/>
<path d="M5534 1556 c11 -9 24 -16 30 -16 12 0 7 5 -24 19 -24 11 -24 11 -6
-3z"/>
<path d="M920 1521 c0 -5 7 -12 16 -15 14 -5 15 -4 4 9 -14 17 -20 19 -20 6z"/>
<path d="M9035 1483 c-20 -24 -23 -32 -10 -24 23 15 60 61 48 60 -4 0 -21 -17
-38 -36z"/>
<path d="M5600 1506 c0 -2 7 -7 16 -10 8 -3 12 -2 9 4 -6 10 -25 14 -25 6z"/>
<path d="M5652 1464 c10 -10 20 -16 22 -13 3 3 -5 11 -17 18 -21 13 -21 12 -5
-5z"/>
<path d="M1005 1432 c21 -23 40 -42 42 -42 10 0 -15 30 -45 54 l-37 30 40 -42z"/>
<path d="M4330 1460 c-9 -6 -10 -10 -3 -10 6 0 15 5 18 10 8 12 4 12 -15 0z"/>
<path d="M5724 1416 c11 -9 24 -16 30 -16 12 0 7 5 -24 19 -24 11 -24 11 -6
-3z"/>
<path d="M4255 1410 c-8 -13 5 -13 25 0 13 8 13 10 -2 10 -9 0 -20 -4 -23 -10z"/>
<path d="M1060 1376 c0 -2 8 -10 18 -17 15 -13 16 -12 3 4 -13 16 -21 21 -21
13z"/>
<path d="M4184 1358 c-41 -30 -52 -42 -29 -30 26 15 72 51 64 52 -4 0 -19 -10
-35 -22z"/>
<path d="M5800 1366 c0 -3 15 -15 33 -27 l32 -23 -24 27 c-22 24 -41 35 -41
23z"/>
<path d="M4105 1310 c-3 -6 1 -7 9 -4 18 7 21 14 7 14 -6 0 -13 -4 -16 -10z"/>
<path d="M1160 1286 c0 -3 9 -10 20 -16 11 -6 20 -8 20 -6 0 3 -9 10 -20 16
-11 6 -20 8 -20 6z"/>
<path d="M5934 1275 c22 -17 40 -20 32 -6 -3 5 -16 11 -28 14 -22 6 -22 5 -4
-8z"/>
<path d="M4040 1270 c-8 -5 -10 -10 -5 -10 6 0 17 5 25 10 8 5 11 10 5 10 -5
0 -17 -5 -25 -10z"/>
<path d="M8805 1270 c-3 -5 -2 -10 4 -10 5 0 13 5 16 10 3 6 2 10 -4 10 -5 0
-13 -4 -16 -10z"/>
<path d="M1215 1240 c3 -5 16 -15 28 -21 l22 -11 -22 21 c-23 22 -39 28 -28
11z"/>
<path d="M8760 1230 c-14 -11 -20 -20 -14 -20 6 0 19 9 29 20 23 25 17 25 -15
0z"/>
<path d="M3980 1230 c-8 -5 -10 -10 -5 -10 6 0 17 5 25 10 8 5 11 10 5 10 -5
0 -17 -5 -25 -10z"/>
<path d="M6020 1226 c0 -2 7 -7 16 -10 8 -3 12 -2 9 4 -6 10 -25 14 -25 6z"/>
<path d="M3890 1180 c-9 -6 -10 -10 -3 -10 6 0 15 5 18 10 8 12 4 12 -15 0z"/>
<path d="M6091 1186 c2 -2 15 -9 29 -15 24 -11 24 -11 6 3 -16 13 -49 24 -35
12z"/>
<path d="M8679 1169 l-24 -20 30 17 c39 24 40 24 28 24 -6 0 -21 -9 -34 -21z"/>
<path d="M1310 1176 c0 -2 7 -9 15 -16 9 -7 15 -8 15 -2 0 5 -7 12 -15 16 -8
3 -15 4 -15 2z"/>
<path d="M1370 1136 c0 -3 9 -10 20 -16 11 -6 20 -8 20 -6 0 3 -9 10 -20 16
-11 6 -20 8 -20 6z"/>
<path d="M6210 1126 c0 -2 7 -7 16 -10 8 -3 12 -2 9 4 -6 10 -25 14 -25 6z"/>
<path d="M8595 1120 c-3 -6 1 -7 9 -4 18 7 21 14 7 14 -6 0 -13 -4 -16 -10z"/>
<path d="M1460 1080 c8 -5 20 -10 25 -10 6 0 3 5 -5 10 -8 5 -19 10 -25 10 -5
0 -3 -5 5 -10z"/>
<path d="M3680 1080 c-18 -12 -2 -12 25 0 13 6 15 9 5 9 -8 0 -22 -4 -30 -9z"/>
<path d="M6280 1088 c3 -3 21 -10 40 -17 19 -6 30 -7 25 -2 -6 5 -23 13 -40
17 -16 4 -28 5 -25 2z"/>
<path d="M8520 1080 c-18 -12 -2 -12 25 0 13 6 15 9 5 9 -8 0 -22 -4 -30 -9z"/>
<path d="M1528 1038 c5 -5 16 -8 23 -6 8 3 3 7 -10 11 -17 4 -21 3 -13 -5z"/>
<path d="M8455 1040 c-13 -6 -15 -9 -5 -9 8 0 22 4 30 9 18 12 2 12 -25 0z"/>
<path d="M6398 1033 c7 -3 16 -2 19 1 4 3 -2 6 -13 5 -11 0 -14 -3 -6 -6z"/>
<path d="M1630 990 c8 -5 22 -9 30 -9 10 0 8 3 -5 9 -27 12 -43 12 -25 0z"/>
<path d="M6500 990 c8 -5 22 -9 30 -9 10 0 8 3 -5 9 -27 12 -43 12 -25 0z"/>
<path d="M3468 983 c7 -3 16 -2 19 1 4 3 -2 6 -13 5 -11 0 -14 -3 -6 -6z"/>
<path d="M1778 933 c7 -3 16 -2 19 1 4 3 -2 6 -13 5 -11 0 -14 -3 -6 -6z"/>
<path d="M3328 933 c7 -3 16 -2 19 1 4 3 -2 6 -13 5 -11 0 -14 -3 -6 -6z"/>
<path d="M6668 933 c7 -3 16 -2 19 1 4 3 -2 6 -13 5 -11 0 -14 -3 -6 -6z"/>
<path d="M8208 933 c7 -3 16 -2 19 1 4 3 -2 6 -13 5 -11 0 -14 -3 -6 -6z"/>
<path d="M1898 893 c6 -2 18 -2 25 0 6 3 1 5 -13 5 -14 0 -19 -2 -12 -5z"/>
<path d="M3178 893 c6 -2 18 -2 25 0 6 3 1 5 -13 5 -14 0 -19 -2 -12 -5z"/>
<path d="M6820 890 c14 -4 34 -8 45 -8 16 0 15 2 -5 8 -14 4 -34 8 -45 8 -16
0 -15 -2 5 -8z"/>
<path d="M8055 890 c-25 -11 1 -11 35 0 20 6 21 8 5 8 -11 0 -29 -3 -40 -8z"/>
<path d="M1948 883 c7 -3 16 -2 19 1 4 3 -2 6 -13 5 -11 0 -14 -3 -6 -6z"/>
<path d="M3138 883 c7 -3 16 -2 19 1 4 3 -2 6 -13 5 -11 0 -14 -3 -6 -6z"/>
<path d="M2113 843 c9 -2 25 -2 35 0 9 3 1 5 -18 5 -19 0 -27 -2 -17 -5z"/>
<path d="M2933 843 c9 -2 25 -2 35 0 9 3 1 5 -18 5 -19 0 -27 -2 -17 -5z"/>
<path d="M7033 843 c9 -2 25 -2 35 0 9 3 1 5 -18 5 -19 0 -27 -2 -17 -5z"/>
<path d="M7863 843 c9 -2 23 -2 30 0 6 3 -1 5 -18 5 -16 0 -22 -2 -12 -5z"/>
<path d="M2193 833 c9 -2 23 -2 30 0 6 3 -1 5 -18 5 -16 0 -22 -2 -12 -5z"/>
<path d="M2853 833 c9 -2 25 -2 35 0 9 3 1 5 -18 5 -19 0 -27 -2 -17 -5z"/>
<path d="M7113 833 c9 -2 25 -2 35 0 9 3 1 5 -18 5 -19 0 -27 -2 -17 -5z"/>
<path d="M7783 833 c9 -2 25 -2 35 0 9 3 1 5 -18 5 -19 0 -27 -2 -17 -5z"/>
<path d="M2768 813 c7 -3 16 -2 19 1 4 3 -2 6 -13 5 -11 0 -14 -3 -6 -6z"/>
</g>
</svg>
