<?xml version="1.0" standalone="no"?>
<!DOCTYPE svg PUBLIC "-//W3C//DTD SVG 20010904//EN"
 "http://www.w3.org/TR/2001/REC-SVG-20010904/DTD/svg10.dtd">
<svg version="1.0" xmlns="http://www.w3.org/2000/svg"
 width="900.000000pt" height="520.000000pt" viewBox="0 0 900.000000 520.000000"
 preserveAspectRatio="xMidYMid meet">

<g transform="translate(0.000000,520.000000) scale(0.100000,-0.100000)"
fill="#000000" stroke="none">
<path d="M2615 4131 c-48 -22 -69 -44 -90 -94 -13 -32 -15 -198 -15 -1427 0
-1528 -4 -1432 60 -1465 26 -13 234 -15 1772 -15 1708 0 1744 0 1775 20 39 24
51 45 58 107 4 26 53 343 111 703 57 360 127 798 154 974 l51 319 -21 41 c-11
23 -34 50 -52 61 -32 19 -56 20 -766 23 -520 2 -745 -1 -775 -9 -33 -9 -67
-36 -163 -130 -66 -65 -133 -123 -148 -129 -18 -6 -270 -10 -733 -10 -631 0
-709 -2 -739 -16 -67 -32 -74 -54 -175 -612 -52 -282 -95 -509 -96 -505 -2 5
15 121 37 258 22 138 69 432 105 655 36 223 69 432 75 465 5 33 10 61 10 62 0
2 701 4 1557 5 1234 2 1557 6 1561 16 3 9 -316 12 -1570 12 l-1574 0 -47 -297
c-26 -164 -92 -581 -147 -926 -55 -346 -100 -640 -100 -654 0 -15 -2 -24 -5
-21 -3 3 28 447 70 987 41 539 75 983 75 986 0 3 702 5 1560 5 1033 0 1560 3
1560 10 0 7 -530 10 -1569 10 l-1570 0 -5 -52 c-23 -199 -140 -1806 -146
-1988 -4 -128 -7 278 -8 948 l-2 1172 1655 0 1655 0 0 -49 c0 -46 1 -49 31
-55 17 -3 45 -6 61 -6 l30 0 -4 73 c-3 63 -8 80 -32 112 -16 20 -47 46 -70 56
-39 18 -82 19 -872 19 -760 0 -833 1 -845 16 -10 12 -16 56 -19 138 -6 140
-19 169 -93 205 -43 21 -53 21 -788 21 -701 0 -746 -2 -784 -19z m202 -2213
c-3 -7 -5 -2 -5 12 0 14 2 19 5 13 2 -7 2 -19 0 -25z m-100 -465 c-3 -10 -5
-4 -5 12 0 17 2 24 5 18 2 -7 2 -21 0 -30z"/>
</g>
</svg>
