<svg height="1000pt" preserveAspectRatio="xMidYMid meet" viewBox="0 0 1042 1000" width="1042pt" xmlns="http://www.w3.org/2000/svg"><g transform="matrix(.1 0 0 -.1 0 1000)"><path d="m3410 9505c-722-90-1361-392-1872-884-541-521-874-1191-970-1951-20-160-17-633 5-785 87-596 287-1080 635-1541 822-1086 2255-1537 3553-1118 306 98 560 223 830 405 64 44 119 79 123 79 3 0 6-12 6-27 0-40 34-91 73-109l33-16v-117c-1-139 20-221 85-321 55-87 2527-2561 2609-2612 84-52 148-76 242-89 74-11 97-10 169 4 47 9 117 32 159 53 69 33 97 58 331 293 221 222 259 265 287 322 89 186 82 386-20 557-23 38-409 430-1303 1323-698 698-1281 1277-1295 1287-43 33-124 70-191 87-49 13-90 16-176 12l-112-5-21 34c-24 41-98 79-136 70-13-4-24-5-24-3 0 3 36 61 79 131 209 334 351 688 431 1080 11 54 20 100 20 102s-21-10-47-26c-144-89-339-109-507-51-61 22-146 69-183 104-18 16-23 17-27 6-2-8-16-63-31-124-149-598-553-1144-1097-1481-116-72-344-182-463-224-125-44-329-95-465-116-163-26-567-26-730-1-258 41-481 112-725 232-259 127-444 262-660 479-210 211-338 391-465 651-113 230-175 422-221 680-27 152-37 491-20 657 84 795 543 1494 1244 1895 264 151 559 251 884 300 154 23 498 23 658-1 490-72 934-273 1289-584l59-52h274 273v263l-1 262-91 80c-407 359-904 613-1424 730-246 55-358 67-669 71-210 2-322-1-405-11z"/><path d="m6504 9042c-77-27-128-73-166-150l-33-67-3-507-3-507-507-3c-493-3-508-4-553-24-188-87-242-316-109-467 44-51 103-83 174-96 37-7 237-11 527-11h468l3-507 3-508 26-56c111-236 427-236 538 0l26 56 3 507 3 507 507 4c368 2 517 6 544 15 93 31 179 131 195 227 25 140-44 268-176 329-45 20-62 21-558 24l-512 3-3 507-3 507-27 57c-67 144-218 210-364 160z"/></g></svg>