<svg clip-rule="evenodd" fill-rule="evenodd" height="512" image-rendering="optimizeQuality" shape-rendering="geometricPrecision" text-rendering="geometricPrecision" width="512" xmlns="http://www.w3.org/2000/svg"><path d="m188.5-.5h107c6.893 2.39027 11.726 7.05693 14.5 14 3.372 19.6038 6.372 39.2705 9 59 .374.9162.874 1.7496 1.5 2.5 10.492 5.0763 20.492 10.9096 30 17.5 19.977-8.6585 40.311-16.3251 61-23 8.409.4503 14.909 4.117 19.5 11 16.733 28.41 33.067 57.076 49 86 2.973 11.233-.194 20.4-9.5 27.5-14.167 10.833-28.333 21.667-42.5 32.5.561 7.614.561 15.28 0 23-2 5.667-6 8.667-12 9-22.973-3.622-45.639-2.289-68 4-9.589-2.675-13.089-8.842-10.5-18.5-2.295-40.933-21.962-69.933-59-87-44.247-15.398-81.747-5.565-112.5 29.5-27.566 40.432-26.899 80.432 2 120 22.243 24.755 50.077 36.255 83.5 34.5 6.408 3.323 8.575 8.489 6.5 15.5-11.145 42.13-4.479 81.13 20 117 2.039 4.487 1.706 8.82-1 13-1.319 1.987-3.152 3.154-5.5 3.5-27.333.667-54.667.667-82 0-8.86-2.193-14.36-7.693-16.5-16.5-2.907-19.352-5.907-38.685-9-58-10.246-5.204-20.079-11.037-29.5-17.5-2.053-.325-4.053.009-6 1-16.507 7.058-33.174 13.725-50 20-11.1809 2.167-20.0142-1.333-26.5-10.5-16-28-32-56-48-84-2.61918-8.143-1.61918-15.809 3-23 15.4004-13.237 31.2338-25.903 47.5-38 .3333-1.333.6667-2.667 1-4-1.0744-11.005-1.241-22.005-.5-33-14.8333-11.5-29.6667-23-44.5-34.5-9.674692-10.768-10.50802531-22.268-2.5-34.5 13.9193-23.503 27.586-47.17 41-71 7.0026-14.587 18.1693-19.4204 33.5-14.5 16.9051 6.7041 33.738 13.5374 50.5 20.5 9.59-6.8821 19.757-12.8821 30.5-18 .798-1.5777 1.298-3.2444 1.5-5 2.443-19.1036 5.443-38.1036 9-57 3.162-6.33589 7.996-10.66923 14.5-13z" fill="#445a63" opacity=".989"/><path d="m395.5 511.5c-6.667 0-13.333 0-20 0-56.987-10.821-90.821-44.821-101.5-102-4.184-51.799 15.649-91.299 59.5-118.5 47.361-23.546 91.361-18.546 132 15 7.972 7.633 14.805 16.133 20.5 25.5.333-8.667.667-17.333 1-26 3.963-7.654 9.796-9.487 17.5-5.5 1.541 1.579 2.708 3.413 3.5 5.5.667 23.667.667 47.333 0 71-.786 3.083-2.619 5.249-5.5 6.5-24.667.667-49.333.667-74 0-6.435-4.687-7.602-10.521-3.5-17.5.903-1.201 2.069-2.035 3.5-2.5 15.277-1.12 30.611-1.953 46-2.5-18.417-43.899-51.417-64.066-99-60.5-38.713 8.045-64.213 30.878-76.5 68.5-9.942 46.541 4.891 82.708 44.5 108.5 16.614 8.57 34.28 13.237 53 14 5.145 4.598 6.312 10.098 3.5 16.5-1.397 1.57-2.897 2.904-4.5 4z" fill="#4caf4f" opacity=".951"/></svg>