<?xml version="1.0" standalone="no"?>
<!DOCTYPE svg PUBLIC "-//W3C//DTD SVG 20010904//EN"
 "http://www.w3.org/TR/2001/REC-SVG-20010904/DTD/svg10.dtd">
<svg version="1.0" xmlns="http://www.w3.org/2000/svg"
 width="900.000000pt" height="899.000000pt" viewBox="0 0 900.000000 899.000000"
 preserveAspectRatio="xMidYMid meet">

<g transform="translate(0.000000,899.000000) scale(0.100000,-0.100000)"
fill="#000000" stroke="none">
<path d="M3835 8980 c-425 -7 -416 -5 -512 -102 l-52 -53 -3 -736 -3 -735 30
-58 c61 -118 142 -146 428 -146 l177 0 0 -81 c0 -44 -5 -89 -10 -100 -6 -10
-39 -32 -73 -48 -39 -17 -75 -43 -96 -67 -34 -41 -103 -180 -211 -425 l-65
-146 -170 -6 c-93 -4 -266 -7 -382 -7 l-213 0 0 53 c0 74 -13 111 -61 173
l-41 54 -602 -1 c-330 0 -668 -4 -750 -8 l-150 -8 -33 -38 c-39 -46 -68 -132
-59 -179 4 -22 2 -37 -7 -44 -7 -6 -59 -18 -115 -27 -198 -29 -385 -123 -543
-272 -93 -88 -150 -165 -210 -287 -107 -217 -104 -149 -103 -2581 1 -1393 4
-2083 12 -2175 13 -163 48 -277 123 -401 122 -203 262 -332 474 -436 155 -77
305 -80 3890 -80 3283 0 3623 5 3803 52 29 7 96 37 148 66 165 92 304 227 399
389 54 93 71 132 102 240 24 83 25 97 33 550 12 736 5 3860 -9 4015 -25 271
-73 392 -229 568 -131 148 -261 246 -392 296 -166 64 -258 72 -919 80 l-553 6
-40 90 c-216 488 -247 537 -350 566 -67 19 -78 37 -78 135 l0 84 203 0 c228 0
267 7 340 61 99 74 111 131 111 574 1 494 -5 891 -15 970 -7 52 -17 81 -41
116 -58 86 -106 98 -418 109 -264 8 -2228 9 -2765 0z m2665 -920 l0 -350
-1340 0 -1340 0 0 350 0 350 1340 0 1340 0 0 -350z m-4427 -2939 c274 -95 354
-445 149 -650 -197 -197 -511 -134 -640 128 -33 66 -37 84 -37 150 0 65 5 86
32 144 34 71 113 163 170 198 83 52 225 64 326 30z m3492 -105 c306 -53 641
-210 906 -424 98 -79 280 -267 353 -365 295 -395 440 -851 423 -1327 -16 -430
-159 -832 -424 -1190 -80 -108 -331 -354 -440 -430 -123 -85 -258 -160 -423
-232 -275 -121 -389 -141 -810 -142 -344 0 -393 6 -599 73 -661 217 -1157 709
-1372 1361 -76 231 -83 287 -83 630 -1 344 6 397 83 629 155 469 446 852 851
1117 227 148 528 270 750 303 41 6 86 13 100 15 14 3 153 3 310 1 202 -2 311
-8 375 -19z"/>
<path d="M4963 4500 c-237 -27 -484 -123 -686 -267 -94 -67 -263 -230 -330
-319 -121 -161 -235 -390 -285 -574 -25 -91 -26 -106 -26 -370 0 -264 1 -279
26 -370 33 -120 113 -309 180 -419 163 -272 401 -487 684 -616 100 -46 275
-101 369 -116 44 -6 172 -12 285 -13 182 -1 215 2 295 22 320 80 566 214 771
416 210 209 345 445 421 736 34 131 44 447 19 618 -46 311 -220 635 -463 862
-214 200 -502 348 -771 396 -102 18 -386 26 -489 14z"/>
</g>
</svg>
