<?xml version="1.0" encoding="utf-8"?>
<!-- Svg Vector Icons : http://www.onlinewebfonts.com/icon -->
<!DOCTYPE svg PUBLIC "-//W3C//DTD SVG 1.1//EN" "http://www.w3.org/Graphics/SVG/1.1/DTD/svg11.dtd">
<svg version="1.1" xmlns="http://www.w3.org/2000/svg" xmlns:xlink="http://www.w3.org/1999/xlink" x="0px" y="0px" viewBox="0 0 256 256" enable-background="new 0 0 256 256" xml:space="preserve">
<metadata> Svg Vector Icons : http://www.onlinewebfonts.com/icon </metadata>
<g><g><path fill="#000000" d="M241.1,217.2l-61.8-61.8c10.3-15,16.4-33,16.4-52.5c0-51.2-41.6-92.8-92.8-92.8C51.6,10,10,51.6,10,102.8c0,51.2,41.6,92.8,92.8,92.8c19.5,0,37.6-6.1,52.5-16.4l61.8,61.8c3.2,3.2,7.4,5,12,5c4.5,0,8.8-1.8,11.9-5s5-7.4,5-11.9C246,224.6,244.2,220.3,241.1,217.2z M102.8,185.9c-45.8,0-83.1-37.3-83.1-83.1c0-45.8,37.3-83.1,83.1-83.1c45.8,0,83.1,37.3,83.1,83.1S148.6,185.9,102.8,185.9z M234.2,234.2c-2.7,2.7-7.4,2.7-10.2,0l-60.9-60.9c3.6-3.1,7-6.5,10.2-10.2l60.9,60.9C237,226.8,237,231.4,234.2,234.2z"/><path fill="#000000" d="M150.1,97.9h-42.4V55.5c0-2.7-2.2-4.9-4.9-4.9s-4.9,2.2-4.9,4.9v42.4H55.5c-2.7,0-4.9,2.2-4.9,4.9c0,2.7,2.2,4.9,4.9,4.9h42.4v42.4c0,2.7,2.2,4.9,4.9,4.9c2.7,0,4.9-2.2,4.9-4.9v-42.4h42.4c2.7,0,4.9-2.2,4.9-4.9C155,100.1,152.8,97.9,150.1,97.9z"/></g></g>
</svg>