<?xml version="1.0" encoding="utf-8"?>
<!-- Svg Vector Icons : http://www.onlinewebfonts.com/icon -->
<!DOCTYPE svg PUBLIC "-//W3C//DTD SVG 1.1//EN" "http://www.w3.org/Graphics/SVG/1.1/DTD/svg11.dtd">
<svg version="1.1" xmlns="http://www.w3.org/2000/svg" xmlns:xlink="http://www.w3.org/1999/xlink" x="0px" y="0px" viewBox="0 0 256 256" enable-background="new 0 0 256 256" xml:space="preserve">
<metadata> Svg Vector Icons : http://www.onlinewebfonts.com/icon </metadata>
<g><g><g><g><path fill="#000000" d="M186.6,148.6c1.6-2.9,3.1-5.9,4.4-8.9c4.9-11.6,7.4-23.9,7.4-36.6c0-12.7-2.5-25-7.4-36.6c-4.7-11.2-11.5-21.3-20.2-29.9c-8.6-8.6-18.7-15.4-29.9-20.2C129.3,11.4,117,9,104.3,9s-25,2.5-36.6,7.4c-11.2,4.7-21.3,11.5-29.9,20.2c-8.6,8.6-15.4,18.7-20.2,29.9c-4.9,11.6-7.4,23.9-7.4,36.6c0,12.7,2.5,25,7.4,36.6c4.7,11.2,11.5,21.3,20.2,29.9c8.6,8.6,18.7,15.4,29.9,20.2c11.6,4.9,23.9,7.4,36.6,7.4s25-2.5,36.6-7.4c2-0.8,3.9-1.7,5.7-2.6l52.7,52.7c4.7,4.7,10.9,7.3,17.5,7.3c6.6,0,12.8-2.6,17.5-7.3l4.2-4.2c9.6-9.6,9.6-25.3,0-35L186.6,148.6z M149.3,165.4c-4.8,3.5-10.1,6.4-15.6,8.7c-9.1,3.7-19,5.8-29.4,5.8c-42.4,0-76.8-34.4-76.8-76.8c0-42.4,34.4-76.8,76.8-76.8c42.4,0,76.8,34.4,76.8,76.8c0,11.7-2.6,22.8-7.3,32.8c-2.5,5.4-5.7,10.4-9.3,15C160.1,156.3,155,161.2,149.3,165.4z M226.4,223.4l-4.2,4.2c-1.5,1.5-3.4,2.2-5.3,2.2c-1.9,0-3.8-0.7-5.3-2.2l-49.9-49.9c3.2-2.5,6.3-5.2,9.2-8.1c2.1-2.1,4-4.2,5.9-6.5l49.7,49.7C229.3,215.7,229.3,220.4,226.4,223.4z"/><path fill="#000000" d="M216.8,247.2c-6.6,0-12.9-2.6-17.6-7.3l-52.6-52.6c-1.9,0.9-3.8,1.8-5.6,2.6c-11.6,4.9-24,7.4-36.7,7.4c-12.7,0-25.1-2.5-36.7-7.4c-11.2-4.7-21.3-11.5-30-20.2c-8.6-8.6-15.5-18.7-20.2-30c-4.9-11.6-7.4-24-7.4-36.7c0-12.7,2.5-25.1,7.4-36.7C22.2,55.1,29,45,37.6,36.4c8.6-8.6,18.7-15.5,30-20.2c11.6-4.9,24-7.4,36.7-7.4c12.7,0,25.1,2.5,36.7,7.4c11.2,4.7,21.3,11.5,30,20.2c8.6,8.6,15.5,18.7,20.2,30c4.9,11.6,7.4,24,7.4,36.7c0,12.7-2.5,25.1-7.4,36.7c-1.3,3-2.7,5.9-4.3,8.8l51.8,51.8c4.7,4.7,7.3,11,7.3,17.6c0,6.7-2.6,12.9-7.3,17.6l-4.2,4.2C229.7,244.7,223.5,247.2,216.8,247.2z M146.7,186.8l52.8,52.8c4.6,4.6,10.8,7.2,17.3,7.2c6.5,0,12.7-2.6,17.3-7.2l4.2-4.2c9.6-9.6,9.6-25.1,0-34.7l-52.1-52.1l0.1-0.1c1.6-2.9,3.1-5.9,4.4-8.9c4.9-11.6,7.4-23.9,7.4-36.6s-2.5-25-7.4-36.6c-4.7-11.2-11.5-21.2-20.1-29.8c-8.6-8.6-18.7-15.4-29.8-20.1c-11.6-4.9-23.9-7.4-36.6-7.4c-12.7,0-25,2.5-36.6,7.4C56.5,21.3,46.5,28,37.9,36.7c-8.6,8.6-15.4,18.7-20.1,29.8c-4.9,11.6-7.4,23.9-7.4,36.6c0,12.7,2.5,25,7.4,36.6c4.7,11.2,11.5,21.2,20.1,29.8c8.6,8.6,18.7,15.4,29.8,20.1c11.6,4.9,23.9,7.4,36.6,7.4s25-2.5,36.6-7.4c1.9-0.8,3.8-1.7,5.7-2.6L146.7,186.8z M216.8,230c-2,0-4-0.8-5.4-2.3l-50.1-50.1l0.2-0.1c3.2-2.5,6.3-5.2,9.2-8.1c2-2,4-4.2,5.9-6.5l0.1-0.2l49.8,49.8c3,3,3,7.9,0,10.9l-4.2,4.2C220.8,229.2,218.9,230,216.8,230z M161.9,177.7l49.8,49.8c1.4,1.4,3.2,2.1,5.2,2.1c1.9,0,3.8-0.7,5.2-2.1l4.2-4.2c2.8-2.8,2.8-7.5,0-10.3l-49.5-49.5c-1.8,2.2-3.8,4.3-5.8,6.3C168.1,172.6,165.1,175.2,161.9,177.7z M104.3,180.1c-42.5,0-77-34.6-77-77c0-42.5,34.6-77.1,77-77.1c42.5,0,77,34.6,77,77c0,11.5-2.5,22.5-7.3,32.8c-2.5,5.3-5.7,10.4-9.4,15.1c-4.4,5.5-9.5,10.4-15.2,14.5c-4.9,3.5-10.1,6.5-15.7,8.8C124.4,178.1,114.5,180.1,104.3,180.1z M104.3,26.4c-42.3,0-76.7,34.4-76.7,76.7c0,42.3,34.4,76.7,76.7,76.7c10.1,0,20-2,29.3-5.8c5.5-2.3,10.8-5.2,15.6-8.7c5.7-4.1,10.8-9,15.1-14.5c3.7-4.6,6.8-9.7,9.3-15c4.8-10.3,7.3-21.3,7.3-32.7C180.9,60.8,146.5,26.4,104.3,26.4z"/></g><g><path fill="#000000" d="M139.7,94.4H68.9c-4.8,0-8.6,3.9-8.6,8.6c0,4.8,3.9,8.6,8.6,8.6h46.2h24.6c2.7,0,5.2-1.3,6.7-3.3c1.2-1.5,1.9-3.3,1.9-5.4C148.3,98.3,144.4,94.4,139.7,94.4z"/><path fill="#000000" d="M139.7,111.9H68.9c-4.9,0-8.8-3.9-8.8-8.8c0-4.9,3.9-8.8,8.8-8.8h70.8c4.9,0,8.8,3.9,8.8,8.8c0,2-0.7,3.9-1.9,5.5C144.9,110.7,142.4,111.9,139.7,111.9z M68.9,94.6c-4.6,0-8.4,3.8-8.4,8.4c0,4.6,3.8,8.4,8.4,8.4h70.8c2.6,0,5-1.2,6.6-3.2c1.2-1.5,1.8-3.3,1.8-5.2c0-4.6-3.8-8.4-8.4-8.4H68.9L68.9,94.6z"/></g></g><g></g><g></g><g></g><g></g><g></g><g></g><g></g><g></g><g></g><g></g><g></g><g></g><g></g><g></g><g></g></g></g>
</svg>